<?xml version="1.0" encoding="UTF-8" standalone="no"?>
<!DOCTYPE svg PUBLIC "-//W3C//DTD SVG 1.1//EN"
 "http://www.w3.org/Graphics/SVG/1.1/DTD/svg11.dtd">
<!-- Generated by graphviz version 2.40.1 (20161225.0304)
 -->
<!-- Title: dependencies Pages: 1 -->
<svg width="3245pt" height="358pt"
 viewBox="0.00 0.00 3245.00 358.00" xmlns="http://www.w3.org/2000/svg" xmlns:xlink="http://www.w3.org/1999/xlink">
<g id="graph0" class="graph" transform="scale(1 1) rotate(0) translate(4 354)">
<title>dependencies</title>
<polygon fill="#ffffff" stroke="transparent" points="-4,4 -4,-354 3241,-354 3241,4 -4,4"/>
<text text-anchor="start" x="1597.5091" y="-42.4" font-family="sans-serif" font-weight="bold" font-size="14.00" fill="#000000">Legend</text>
<polygon fill="#ffffb3" stroke="transparent" points="1384.5,-10 1384.5,-30 1404.5,-30 1404.5,-10 1384.5,-10"/>
<text text-anchor="start" x="1408.129" y="-15.4" font-family="sans-serif" font-size="14.00" fill="#000000"> &#160;Declarations</text>
<polygon fill="#8dd3c7" stroke="transparent" points="1497.5,-10 1497.5,-30 1517.5,-30 1517.5,-10 1497.5,-10"/>
<text text-anchor="start" x="1521.2251" y="-15.4" font-family="sans-serif" font-size="14.00" fill="#000000"> &#160;Module</text>
<polygon fill="#80b1d3" stroke="transparent" points="1583.5,-10 1583.5,-30 1603.5,-30 1603.5,-10 1583.5,-10"/>
<text text-anchor="start" x="1607.2812" y="-15.4" font-family="sans-serif" font-size="14.00" fill="#000000"> &#160;Bootstrap</text>
<polygon fill="#fdb462" stroke="transparent" points="1680.5,-10 1680.5,-30 1700.5,-30 1700.5,-10 1680.5,-10"/>
<text text-anchor="start" x="1704.1732" y="-15.4" font-family="sans-serif" font-size="14.00" fill="#000000"> &#160;Providers</text>
<polygon fill="#fb8072" stroke="transparent" points="1776.5,-10 1776.5,-30 1796.5,-30 1796.5,-10 1776.5,-10"/>
<text text-anchor="start" x="1800.2258" y="-15.4" font-family="sans-serif" font-size="14.00" fill="#000000"> &#160;Exports</text>
<g id="clust1" class="cluster">
<title>cluster_AppModule</title>
<polygon fill="none" stroke="#000000" stroke-dasharray="1,5" points="8,-70 8,-342 530,-342 530,-70 8,-70"/>
</g>
<g id="clust2" class="cluster">
<title>cluster_AppModule_declarations</title>
<polygon fill="none" stroke="#000000" points="48,-146 48,-198 170,-198 170,-146 48,-146"/>
</g>
<g id="clust4" class="cluster">
<title>cluster_AppModule_imports</title>
<polygon fill="none" stroke="#000000" points="178,-146 178,-198 522,-198 522,-146 178,-146"/>
</g>
<g id="clust6" class="cluster">
<title>cluster_AppModule_bootstrap</title>
<polygon fill="none" stroke="#000000" points="111,-282 111,-334 235,-334 235,-282 111,-282"/>
</g>
<g id="clust7" class="cluster">
<title>cluster_AppModule_providers</title>
<polygon fill="none" stroke="#000000" points="16,-78 16,-130 360,-130 360,-78 16,-78"/>
</g>
<g id="clust8" class="cluster">
<title>cluster_PagesModule</title>
<polygon fill="none" stroke="#000000" stroke-dasharray="1,5" points="538,-206 538,-274 1923,-274 1923,-206 538,-206"/>
</g>
<g id="clust9" class="cluster">
<title>cluster_PagesModule_declarations</title>
<polygon fill="none" stroke="#000000" points="1242,-214 1242,-266 1915,-266 1915,-214 1242,-214"/>
</g>
<g id="clust15" class="cluster">
<title>cluster_PagesModule_exports</title>
<polygon fill="none" stroke="#000000" points="546,-214 546,-266 1234,-266 1234,-214 546,-214"/>
</g>
<g id="clust18" class="cluster">
<title>cluster_ServiceModule</title>
<polygon fill="none" stroke="#000000" stroke-dasharray="1,5" points="538,-70 538,-138 1028,-138 1028,-70 538,-70"/>
</g>
<g id="clust23" class="cluster">
<title>cluster_ServiceModule_providers</title>
<polygon fill="none" stroke="#000000" points="546,-78 546,-130 1020,-130 1020,-78 546,-78"/>
</g>
<g id="clust24" class="cluster">
<title>cluster_SharedModule</title>
<polygon fill="none" stroke="#000000" stroke-dasharray="1,5" points="1931,-206 1931,-274 3229,-274 3229,-206 1931,-206"/>
</g>
<g id="clust25" class="cluster">
<title>cluster_SharedModule_declarations</title>
<polygon fill="none" stroke="#000000" points="2591,-214 2591,-266 3221,-266 3221,-214 2591,-214"/>
</g>
<g id="clust31" class="cluster">
<title>cluster_SharedModule_exports</title>
<polygon fill="none" stroke="#000000" points="1939,-214 1939,-266 2583,-266 2583,-214 1939,-214"/>
</g>
<!-- AppComponent -->
<g id="node1" class="node">
<title>AppComponent</title>
<polygon fill="#ffffb3" stroke="#000000" points="161.9399,-190 56.0601,-190 56.0601,-154 161.9399,-154 161.9399,-190"/>
<text text-anchor="middle" x="109" y="-167.8" font-family="Times,serif" font-size="14.00" fill="#000000">AppComponent</text>
</g>
<!-- AppModule -->
<g id="node2" class="node">
<title>AppModule</title>
<polygon fill="#8dd3c7" stroke="#000000" points="214.6571,-258 211.6571,-262 190.6571,-262 187.6571,-258 131.3429,-258 131.3429,-222 214.6571,-222 214.6571,-258"/>
<text text-anchor="middle" x="173" y="-235.8" font-family="Times,serif" font-size="14.00" fill="#000000">AppModule</text>
</g>
<!-- AppComponent&#45;&gt;AppModule -->
<g id="edge1" class="edge">
<title>AppComponent&#45;&gt;AppModule</title>
<path fill="none" stroke="#000000" d="M146.4457,-190.2228C146.4457,-190.2228 146.4457,-211.7269 146.4457,-211.7269"/>
<polygon fill="#000000" stroke="#000000" points="142.9457,-211.7269 146.4457,-221.7269 149.9457,-211.727 142.9457,-211.7269"/>
</g>
<!-- AppComponent  -->
<g id="node6" class="node">
<title>AppComponent </title>
<polygon fill="#80b1d3" stroke="#000000" points="227.439,-326 118.561,-326 118.561,-290 227.439,-290 227.439,-326"/>
<text text-anchor="middle" x="173" y="-303.8" font-family="Times,serif" font-size="14.00" fill="#000000">AppComponent </text>
</g>
<!-- AppModule&#45;&gt;AppComponent  -->
<g id="edge5" class="edge">
<title>AppModule&#45;&gt;AppComponent </title>
<path fill="none" stroke="#000000" stroke-dasharray="1,5" d="M173,-258.2228C173,-258.2228 173,-279.7269 173,-279.7269"/>
<polygon fill="#000000" stroke="#000000" points="169.5001,-279.7269 173,-289.7269 176.5001,-279.727 169.5001,-279.7269"/>
</g>
<!-- PagesModule -->
<g id="node3" class="node">
<title>PagesModule</title>
<polygon fill="#8dd3c7" stroke="#000000" points="398.2064,-190 395.2064,-194 374.2064,-194 371.2064,-190 305.7936,-190 305.7936,-154 398.2064,-154 398.2064,-190"/>
<text text-anchor="middle" x="352" y="-167.8" font-family="Times,serif" font-size="14.00" fill="#000000">PagesModule</text>
</g>
<!-- PagesModule&#45;&gt;AppModule -->
<g id="edge2" class="edge">
<title>PagesModule&#45;&gt;AppModule</title>
<path fill="none" stroke="#000000" d="M379.6619,-190.1686C379.6619,-211.498 379.6619,-244 379.6619,-244 379.6619,-244 224.8211,-244 224.8211,-244"/>
<polygon fill="#000000" stroke="#000000" points="224.8211,-240.5001 214.8211,-244 224.8211,-247.5001 224.8211,-240.5001"/>
</g>
<!-- OtrosAreasComponent  -->
<g id="node13" class="node">
<title>OtrosAreasComponent </title>
<polygon fill="#fb8072" stroke="#000000" points="868.0764,-258 719.9236,-258 719.9236,-222 868.0764,-222 868.0764,-258"/>
<text text-anchor="middle" x="794" y="-235.8" font-family="Times,serif" font-size="14.00" fill="#000000">OtrosAreasComponent </text>
</g>
<!-- PagesModule&#45;&gt;OtrosAreasComponent  -->
<g id="edge12" class="edge">
<title>PagesModule&#45;&gt;OtrosAreasComponent </title>
<path fill="none" stroke="#000000" stroke-dasharray="5,2" d="M352,-190.1804C352,-203.0382 352,-218 352,-218 352,-218 787.7842,-218 787.7842,-218 787.7842,-218 787.7842,-218.3832 787.7842,-218.3832"/>
<polygon fill="#000000" stroke="#000000" points="784.2845,-211.832 787.7842,-221.8321 791.2845,-211.8322 784.2845,-211.832"/>
</g>
<!-- Zpn1AreasComponent  -->
<g id="node14" class="node">
<title>Zpn1AreasComponent </title>
<polygon fill="#fb8072" stroke="#000000" points="701.526,-258 554.474,-258 554.474,-222 701.526,-222 701.526,-258"/>
<text text-anchor="middle" x="628" y="-235.8" font-family="Times,serif" font-size="14.00" fill="#000000">Zpn1AreasComponent </text>
</g>
<!-- PagesModule&#45;&gt;Zpn1AreasComponent  -->
<g id="edge13" class="edge">
<title>PagesModule&#45;&gt;Zpn1AreasComponent </title>
<path fill="none" stroke="#000000" stroke-dasharray="5,2" d="M388.8825,-190.0336C388.8825,-207.0597 388.8825,-230 388.8825,-230 388.8825,-230 544.3057,-230 544.3057,-230"/>
<polygon fill="#000000" stroke="#000000" points="544.3058,-233.5001 554.3057,-230 544.3057,-226.5001 544.3058,-233.5001"/>
</g>
<!-- Zpn2AreasComponent  -->
<g id="node15" class="node">
<title>Zpn2AreasComponent </title>
<polygon fill="#fb8072" stroke="#000000" points="1225.526,-258 1078.474,-258 1078.474,-222 1225.526,-222 1225.526,-258"/>
<text text-anchor="middle" x="1152" y="-235.8" font-family="Times,serif" font-size="14.00" fill="#000000">Zpn2AreasComponent </text>
</g>
<!-- PagesModule&#45;&gt;Zpn2AreasComponent  -->
<g id="edge14" class="edge">
<title>PagesModule&#45;&gt;Zpn2AreasComponent </title>
<path fill="none" stroke="#000000" stroke-dasharray="5,2" d="M370.4412,-190.1097C370.4412,-199.897 370.4412,-210 370.4412,-210 370.4412,-210 1152,-210 1152,-210 1152,-210 1152,-211.8568 1152,-211.8568"/>
<polygon fill="#000000" stroke="#000000" points="1148.5001,-211.8568 1152,-221.8568 1155.5001,-211.8568 1148.5001,-211.8568"/>
</g>
<!-- Zpn3LabsAreasComponent  -->
<g id="node16" class="node">
<title>Zpn3LabsAreasComponent </title>
<polygon fill="#fb8072" stroke="#000000" points="1060.238,-258 885.762,-258 885.762,-222 1060.238,-222 1060.238,-258"/>
<text text-anchor="middle" x="973" y="-235.8" font-family="Times,serif" font-size="14.00" fill="#000000">Zpn3LabsAreasComponent </text>
</g>
<!-- PagesModule&#45;&gt;Zpn3LabsAreasComponent  -->
<g id="edge15" class="edge">
<title>PagesModule&#45;&gt;Zpn3LabsAreasComponent </title>
<path fill="none" stroke="#000000" stroke-dasharray="5,2" d="M361.2206,-190.0555C361.2206,-201.439 361.2206,-214 361.2206,-214 361.2206,-214 949.1851,-214 949.1851,-214 949.1851,-214 949.1851,-214.7942 949.1851,-214.7942"/>
<polygon fill="#000000" stroke="#000000" points="945.6852,-211.9421 949.1851,-221.9421 952.6852,-211.9422 945.6852,-211.9421"/>
</g>
<!-- ServiceModule -->
<g id="node4" class="node">
<title>ServiceModule</title>
<polygon fill="#8dd3c7" stroke="#000000" points="287.5285,-190 284.5285,-194 263.5285,-194 260.5285,-190 186.4715,-190 186.4715,-154 287.5285,-154 287.5285,-190"/>
<text text-anchor="middle" x="237" y="-167.8" font-family="Times,serif" font-size="14.00" fill="#000000">ServiceModule</text>
</g>
<!-- ServiceModule&#45;&gt;AppModule -->
<g id="edge3" class="edge">
<title>ServiceModule&#45;&gt;AppModule</title>
<path fill="none" stroke="#000000" d="M200.5322,-190.2228C200.5322,-190.2228 200.5322,-211.7269 200.5322,-211.7269"/>
<polygon fill="#000000" stroke="#000000" points="197.0323,-211.7269 200.5322,-221.7269 204.0323,-211.727 197.0323,-211.7269"/>
</g>
<!-- SharedModule -->
<g id="node5" class="node">
<title>SharedModule</title>
<polygon fill="#8dd3c7" stroke="#000000" points="514.4231,-190 511.4231,-194 490.4231,-194 487.4231,-190 415.5769,-190 415.5769,-154 514.4231,-154 514.4231,-190"/>
<text text-anchor="middle" x="465" y="-167.8" font-family="Times,serif" font-size="14.00" fill="#000000">SharedModule</text>
</g>
<!-- SharedModule&#45;&gt;AppModule -->
<g id="edge4" class="edge">
<title>SharedModule&#45;&gt;AppModule</title>
<path fill="none" stroke="#000000" d="M465,-190.3228C465,-213.6602 465,-251 465,-251 465,-251 224.8365,-251 224.8365,-251"/>
<polygon fill="#000000" stroke="#000000" points="224.8365,-247.5001 214.8365,-251 224.8364,-254.5001 224.8365,-247.5001"/>
</g>
<!-- BreadcrumbsComponent  -->
<g id="node24" class="node">
<title>BreadcrumbsComponent </title>
<polygon fill="#fb8072" stroke="#000000" points="2249.9699,-258 2090.0301,-258 2090.0301,-222 2249.9699,-222 2249.9699,-258"/>
<text text-anchor="middle" x="2170" y="-235.8" font-family="Times,serif" font-size="14.00" fill="#000000">BreadcrumbsComponent </text>
</g>
<!-- SharedModule&#45;&gt;BreadcrumbsComponent  -->
<g id="edge25" class="edge">
<title>SharedModule&#45;&gt;BreadcrumbsComponent </title>
<path fill="none" stroke="#000000" stroke-dasharray="5,2" d="M514.6453,-182C795.2367,-182 2170,-182 2170,-182 2170,-182 2170,-211.9664 2170,-211.9664"/>
<polygon fill="#000000" stroke="#000000" points="2166.5001,-211.9663 2170,-221.9664 2173.5001,-211.9664 2166.5001,-211.9663"/>
</g>
<!-- HeaderComponent  -->
<g id="node25" class="node">
<title>HeaderComponent </title>
<polygon fill="#fb8072" stroke="#000000" points="2072.7436,-258 1947.2564,-258 1947.2564,-222 2072.7436,-222 2072.7436,-258"/>
<text text-anchor="middle" x="2010" y="-235.8" font-family="Times,serif" font-size="14.00" fill="#000000">HeaderComponent </text>
</g>
<!-- SharedModule&#45;&gt;HeaderComponent  -->
<g id="edge26" class="edge">
<title>SharedModule&#45;&gt;HeaderComponent </title>
<path fill="none" stroke="#000000" stroke-dasharray="5,2" d="M514.2219,-186C777.758,-186 2010,-186 2010,-186 2010,-186 2010,-211.7181 2010,-211.7181"/>
<polygon fill="#000000" stroke="#000000" points="2006.5001,-211.718 2010,-221.7181 2013.5001,-211.7181 2006.5001,-211.718"/>
</g>
<!-- NopagefoundComponent  -->
<g id="node26" class="node">
<title>NopagefoundComponent </title>
<polygon fill="#fb8072" stroke="#000000" points="2574.5288,-258 2413.4712,-258 2413.4712,-222 2574.5288,-222 2574.5288,-258"/>
<text text-anchor="middle" x="2494" y="-235.8" font-family="Times,serif" font-size="14.00" fill="#000000">NopagefoundComponent </text>
</g>
<!-- SharedModule&#45;&gt;NopagefoundComponent  -->
<g id="edge27" class="edge">
<title>SharedModule&#45;&gt;NopagefoundComponent </title>
<path fill="none" stroke="#000000" stroke-dasharray="5,2" d="M514.4004,-174C824.9099,-174 2494,-174 2494,-174 2494,-174 2494,-211.9652 2494,-211.9652"/>
<polygon fill="#000000" stroke="#000000" points="2490.5001,-211.9652 2494,-221.9652 2497.5001,-211.9652 2490.5001,-211.9652"/>
</g>
<!-- SidebarComponent  -->
<g id="node27" class="node">
<title>SidebarComponent </title>
<polygon fill="#fb8072" stroke="#000000" points="2395.596,-258 2268.404,-258 2268.404,-222 2395.596,-222 2395.596,-258"/>
<text text-anchor="middle" x="2332" y="-235.8" font-family="Times,serif" font-size="14.00" fill="#000000">SidebarComponent </text>
</g>
<!-- SharedModule&#45;&gt;SidebarComponent  -->
<g id="edge28" class="edge">
<title>SharedModule&#45;&gt;SidebarComponent </title>
<path fill="none" stroke="#000000" stroke-dasharray="5,2" d="M514.4568,-178C810.1977,-178 2332,-178 2332,-178 2332,-178 2332,-211.7333 2332,-211.7333"/>
<polygon fill="#000000" stroke="#000000" points="2328.5001,-211.7333 2332,-221.7333 2335.5001,-211.7333 2328.5001,-211.7333"/>
</g>
<!-- RegistrosService -->
<g id="node7" class="node">
<title>RegistrosService</title>
<ellipse fill="#fdb462" stroke="#000000" cx="276" cy="-104" rx="76.4381" ry="18"/>
<text text-anchor="middle" x="276" y="-99.8" font-family="Times,serif" font-size="14.00" fill="#000000">RegistrosService</text>
</g>
<!-- RegistrosService&#45;&gt;AppModule -->
<g id="edge6" class="edge">
<title>RegistrosService&#45;&gt;AppModule</title>
<path fill="none" stroke="#000000" d="M296.8303,-121.3874C296.8303,-157.4387 296.8303,-237 296.8303,-237 296.8303,-237 224.9233,-237 224.9233,-237"/>
<polygon fill="#000000" stroke="#000000" points="224.9233,-233.5001 214.9233,-237 224.9233,-240.5001 224.9233,-233.5001"/>
</g>
<!-- RegistrosService&#45;&gt;ServiceModule -->
<g id="edge16" class="edge">
<title>RegistrosService&#45;&gt;ServiceModule</title>
<path fill="none" stroke="#000000" d="M217.1775,-115.5353C217.1775,-115.5353 217.1775,-143.9989 217.1775,-143.9989"/>
<polygon fill="#000000" stroke="#000000" points="213.6776,-143.9989 217.1775,-153.9989 220.6776,-143.999 213.6776,-143.9989"/>
</g>
<!-- SanitariosService -->
<g id="node8" class="node">
<title>SanitariosService</title>
<ellipse fill="#fdb462" stroke="#000000" cx="103" cy="-104" rx="78.724" ry="18"/>
<text text-anchor="middle" x="103" y="-99.8" font-family="Times,serif" font-size="14.00" fill="#000000">SanitariosService</text>
</g>
<!-- SanitariosService&#45;&gt;AppModule -->
<g id="edge7" class="edge">
<title>SanitariosService&#45;&gt;AppModule</title>
<path fill="none" stroke="#000000" d="M171.6657,-112.9233C171.6657,-112.9233 171.6657,-211.6231 171.6657,-211.6231"/>
<polygon fill="#000000" stroke="#000000" points="168.1658,-211.6231 171.6657,-221.6231 175.1658,-211.6231 168.1658,-211.6231"/>
</g>
<!-- SanitariosService&#45;&gt;ServiceModule -->
<g id="edge18" class="edge">
<title>SanitariosService&#45;&gt;ServiceModule</title>
<path fill="none" stroke="#000000" d="M181.8621,-104C188.5825,-104 192.8836,-104 192.8836,-104 192.8836,-104 192.8836,-143.7772 192.8836,-143.7772"/>
<polygon fill="#000000" stroke="#000000" points="189.3837,-143.7772 192.8836,-153.7772 196.3837,-143.7773 189.3837,-143.7772"/>
</g>
<!-- OtrosAreasComponent -->
<g id="node9" class="node">
<title>OtrosAreasComponent</title>
<polygon fill="#ffffb3" stroke="#000000" points="1556.5758,-258 1411.4242,-258 1411.4242,-222 1556.5758,-222 1556.5758,-258"/>
<text text-anchor="middle" x="1484" y="-235.8" font-family="Times,serif" font-size="14.00" fill="#000000">OtrosAreasComponent</text>
</g>
<!-- OtrosAreasComponent&#45;&gt;PagesModule -->
<g id="edge8" class="edge">
<title>OtrosAreasComponent&#45;&gt;PagesModule</title>
<path fill="none" stroke="#000000" d="M1484,-221.8903C1484,-212.103 1484,-202 1484,-202 1484,-202 324.3381,-202 324.3381,-202 324.3381,-202 324.3381,-200.1432 324.3381,-200.1432"/>
<polygon fill="#000000" stroke="#000000" points="327.8382,-200.1432 324.3381,-190.1432 320.8382,-200.1432 327.8382,-200.1432"/>
</g>
<!-- Zpn1AreasComponent -->
<g id="node10" class="node">
<title>Zpn1AreasComponent</title>
<polygon fill="#ffffb3" stroke="#000000" points="1393.5268,-258 1250.4732,-258 1250.4732,-222 1393.5268,-222 1393.5268,-258"/>
<text text-anchor="middle" x="1322" y="-235.8" font-family="Times,serif" font-size="14.00" fill="#000000">Zpn1AreasComponent</text>
</g>
<!-- Zpn1AreasComponent&#45;&gt;PagesModule -->
<g id="edge9" class="edge">
<title>Zpn1AreasComponent&#45;&gt;PagesModule</title>
<path fill="none" stroke="#000000" d="M1322,-221.8056C1322,-213.7218 1322,-206 1322,-206 1322,-206 315.1175,-206 315.1175,-206 315.1175,-206 315.1175,-200.1944 315.1175,-200.1944"/>
<polygon fill="#000000" stroke="#000000" points="318.6176,-200.1944 315.1175,-190.1944 311.6176,-200.1945 318.6176,-200.1944"/>
</g>
<!-- Zpn2AreasComponent -->
<g id="node11" class="node">
<title>Zpn2AreasComponent</title>
<polygon fill="#ffffb3" stroke="#000000" points="1906.5268,-258 1763.4732,-258 1763.4732,-222 1906.5268,-222 1906.5268,-258"/>
<text text-anchor="middle" x="1835" y="-235.8" font-family="Times,serif" font-size="14.00" fill="#000000">Zpn2AreasComponent</text>
</g>
<!-- Zpn2AreasComponent&#45;&gt;PagesModule -->
<g id="edge10" class="edge">
<title>Zpn2AreasComponent&#45;&gt;PagesModule</title>
<path fill="none" stroke="#000000" d="M1835,-221.8196C1835,-208.9618 1835,-194 1835,-194 1835,-194 342.7794,-194 342.7794,-194 342.7794,-194 342.7794,-193.6168 342.7794,-193.6168"/>
<polygon fill="#000000" stroke="#000000" points="346.2797,-200.1678 342.7794,-190.1679 339.2797,-200.168 346.2797,-200.1678"/>
</g>
<!-- Zpn3LabsAreasComponent -->
<g id="node12" class="node">
<title>Zpn3LabsAreasComponent</title>
<polygon fill="#ffffb3" stroke="#000000" points="1745.238,-258 1574.762,-258 1574.762,-222 1745.238,-222 1745.238,-258"/>
<text text-anchor="middle" x="1660" y="-235.8" font-family="Times,serif" font-size="14.00" fill="#000000">Zpn3LabsAreasComponent</text>
</g>
<!-- Zpn3LabsAreasComponent&#45;&gt;PagesModule -->
<g id="edge11" class="edge">
<title>Zpn3LabsAreasComponent&#45;&gt;PagesModule</title>
<path fill="none" stroke="#000000" d="M1660,-221.9445C1660,-210.561 1660,-198 1660,-198 1660,-198 333.5588,-198 333.5588,-198 333.5588,-198 333.5588,-197.2058 333.5588,-197.2058"/>
<polygon fill="#000000" stroke="#000000" points="337.0589,-200.0578 333.5588,-190.0579 330.0589,-200.0579 337.0589,-200.0578"/>
</g>
<!-- SanitarioService -->
<g id="node17" class="node">
<title>SanitarioService</title>
<ellipse fill="#fdb462" stroke="#000000" cx="781" cy="-104" rx="74.713" ry="18"/>
<text text-anchor="middle" x="781" y="-99.8" font-family="Times,serif" font-size="14.00" fill="#000000">SanitarioService</text>
</g>
<!-- SanitarioService&#45;&gt;ServiceModule -->
<g id="edge17" class="edge">
<title>SanitarioService&#45;&gt;ServiceModule</title>
<path fill="none" stroke="#000000" d="M712.9279,-111.5457C712.9279,-121.5624 712.9279,-138 712.9279,-138 712.9279,-138 252.4706,-138 252.4706,-138 252.4706,-138 252.4706,-143.8056 252.4706,-143.8056"/>
<polygon fill="#000000" stroke="#000000" points="248.9707,-143.8055 252.4706,-153.8056 255.9707,-143.8056 248.9707,-143.8055"/>
</g>
<!-- SharedService -->
<g id="node18" class="node">
<title>SharedService</title>
<ellipse fill="#fdb462" stroke="#000000" cx="621" cy="-104" rx="66.6113" ry="18"/>
<text text-anchor="middle" x="621" y="-99.8" font-family="Times,serif" font-size="14.00" fill="#000000">SharedService</text>
</g>
<!-- SharedService&#45;&gt;ServiceModule -->
<g id="edge19" class="edge">
<title>SharedService&#45;&gt;ServiceModule</title>
<path fill="none" stroke="#000000" d="M621.1462,-122.0579C621.1462,-126.4945 621.1462,-130 621.1462,-130 621.1462,-130 234.824,-130 234.824,-130 234.824,-130 234.824,-143.9445 234.824,-143.9445"/>
<polygon fill="#000000" stroke="#000000" points="231.3241,-143.9444 234.824,-153.9445 238.3241,-143.9445 231.3241,-143.9444"/>
</g>
<!-- SidebarService -->
<g id="node19" class="node">
<title>SidebarService</title>
<ellipse fill="#fdb462" stroke="#000000" cx="943" cy="-104" rx="69.4781" ry="18"/>
<text text-anchor="middle" x="943" y="-99.8" font-family="Times,serif" font-size="14.00" fill="#000000">SidebarService</text>
</g>
<!-- SidebarService&#45;&gt;ServiceModule -->
<g id="edge20" class="edge">
<title>SidebarService&#45;&gt;ServiceModule</title>
<path fill="none" stroke="#000000" d="M879.696,-111.7034C879.696,-123.8285 879.696,-146 879.696,-146 879.696,-146 270.1171,-146 270.1171,-146 270.1171,-146 270.1171,-146.7942 270.1171,-146.7942"/>
<polygon fill="#000000" stroke="#000000" points="266.6173,-143.9421 270.1171,-153.9421 273.6173,-143.9422 266.6173,-143.9421"/>
</g>
<!-- BreadcrumbsComponent -->
<g id="node20" class="node">
<title>BreadcrumbsComponent</title>
<polygon fill="#ffffb3" stroke="#000000" points="2894.9692,-258 2739.0308,-258 2739.0308,-222 2894.9692,-222 2894.9692,-258"/>
<text text-anchor="middle" x="2817" y="-235.8" font-family="Times,serif" font-size="14.00" fill="#000000">BreadcrumbsComponent</text>
</g>
<!-- BreadcrumbsComponent&#45;&gt;SharedModule -->
<g id="edge21" class="edge">
<title>BreadcrumbsComponent&#45;&gt;SharedModule</title>
<path fill="none" stroke="#000000" d="M2817,-221.7079C2817,-199.7943 2817,-166 2817,-166 2817,-166 524.3958,-166 524.3958,-166"/>
<polygon fill="#000000" stroke="#000000" points="524.3959,-162.5001 514.3958,-166 524.3958,-169.5001 524.3959,-162.5001"/>
</g>
<!-- HeaderComponent -->
<g id="node21" class="node">
<title>HeaderComponent</title>
<polygon fill="#ffffb3" stroke="#000000" points="2720.7437,-258 2599.2563,-258 2599.2563,-222 2720.7437,-222 2720.7437,-258"/>
<text text-anchor="middle" x="2660" y="-235.8" font-family="Times,serif" font-size="14.00" fill="#000000">HeaderComponent</text>
</g>
<!-- HeaderComponent&#45;&gt;SharedModule -->
<g id="edge22" class="edge">
<title>HeaderComponent&#45;&gt;SharedModule</title>
<path fill="none" stroke="#000000" d="M2660,-221.9733C2660,-201.2328 2660,-170 2660,-170 2660,-170 524.4452,-170 524.4452,-170"/>
<polygon fill="#000000" stroke="#000000" points="524.4453,-166.5001 514.4452,-170 524.4452,-173.5001 524.4453,-166.5001"/>
</g>
<!-- NopagefoundComponent -->
<g id="node22" class="node">
<title>NopagefoundComponent</title>
<polygon fill="#ffffb3" stroke="#000000" points="3212.5295,-258 3055.4705,-258 3055.4705,-222 3212.5295,-222 3212.5295,-258"/>
<text text-anchor="middle" x="3134" y="-235.8" font-family="Times,serif" font-size="14.00" fill="#000000">NopagefoundComponent</text>
</g>
<!-- NopagefoundComponent&#45;&gt;SharedModule -->
<g id="edge23" class="edge">
<title>NopagefoundComponent&#45;&gt;SharedModule</title>
<path fill="none" stroke="#000000" d="M3134,-221.8015C3134,-197.6437 3134,-158 3134,-158 3134,-158 524.4715,-158 524.4715,-158"/>
<polygon fill="#000000" stroke="#000000" points="524.4715,-154.5001 514.4715,-158 524.4715,-161.5001 524.4715,-154.5001"/>
</g>
<!-- SidebarComponent -->
<g id="node23" class="node">
<title>SidebarComponent</title>
<polygon fill="#ffffb3" stroke="#000000" points="3037.0954,-258 2912.9046,-258 2912.9046,-222 3037.0954,-222 3037.0954,-258"/>
<text text-anchor="middle" x="2975" y="-235.8" font-family="Times,serif" font-size="14.00" fill="#000000">SidebarComponent</text>
</g>
<!-- SidebarComponent&#45;&gt;SharedModule -->
<g id="edge24" class="edge">
<title>SidebarComponent&#45;&gt;SharedModule</title>
<path fill="none" stroke="#000000" d="M2975,-221.9092C2975,-198.8672 2975,-162 2975,-162 2975,-162 524.293,-162 524.293,-162"/>
<polygon fill="#000000" stroke="#000000" points="524.293,-158.5001 514.293,-162 524.293,-165.5001 524.293,-158.5001"/>
</g>
</g>
</svg>
