<?xml version="1.0" encoding="UTF-8" standalone="no"?>
<!DOCTYPE svg PUBLIC "-//W3C//DTD SVG 1.1//EN"
 "http://www.w3.org/Graphics/SVG/1.1/DTD/svg11.dtd">
<!-- Generated by graphviz version 2.40.1 (20161225.0304)
 -->
<!-- Title: dependencies Pages: 1 -->
<svg width="858pt" height="211pt"
 viewBox="0.00 0.00 858.00 211.00" xmlns="http://www.w3.org/2000/svg" xmlns:xlink="http://www.w3.org/1999/xlink">
<g id="graph0" class="graph" transform="scale(1 1) rotate(0) translate(4 207)">
<title>dependencies</title>
<polygon fill="#ffffff" stroke="transparent" points="-4,4 -4,-207 854,-207 854,4 -4,4"/>
<text text-anchor="start" x="404.0091" y="-42.4" font-family="sans-serif" font-weight="bold" font-size="14.00" fill="#000000">Legend</text>
<polygon fill="#ffffb3" stroke="transparent" points="191,-10 191,-30 211,-30 211,-10 191,-10"/>
<text text-anchor="start" x="214.629" y="-15.4" font-family="sans-serif" font-size="14.00" fill="#000000"> &#160;Declarations</text>
<polygon fill="#8dd3c7" stroke="transparent" points="304,-10 304,-30 324,-30 324,-10 304,-10"/>
<text text-anchor="start" x="327.7251" y="-15.4" font-family="sans-serif" font-size="14.00" fill="#000000"> &#160;Module</text>
<polygon fill="#80b1d3" stroke="transparent" points="390,-10 390,-30 410,-30 410,-10 390,-10"/>
<text text-anchor="start" x="413.7812" y="-15.4" font-family="sans-serif" font-size="14.00" fill="#000000"> &#160;Bootstrap</text>
<polygon fill="#fdb462" stroke="transparent" points="487,-10 487,-30 507,-30 507,-10 487,-10"/>
<text text-anchor="start" x="510.6732" y="-15.4" font-family="sans-serif" font-size="14.00" fill="#000000"> &#160;Providers</text>
<polygon fill="#fb8072" stroke="transparent" points="583,-10 583,-30 603,-30 603,-10 583,-10"/>
<text text-anchor="start" x="606.7258" y="-15.4" font-family="sans-serif" font-size="14.00" fill="#000000"> &#160;Exports</text>
<g id="clust1" class="cluster">
<title>cluster_ServiceModule</title>
<polygon fill="none" stroke="#000000" stroke-dasharray="1,5" points="8,-70 8,-195 842,-195 842,-70 8,-70"/>
</g>
<g id="clust6" class="cluster">
<title>cluster_ServiceModule_providers</title>
<polygon fill="none" stroke="#000000" points="16,-78 16,-130 834,-130 834,-78 16,-78"/>
</g>
<!-- RegistrosService -->
<g id="node1" class="node">
<title>RegistrosService</title>
<ellipse fill="#fdb462" stroke="#000000" cx="750" cy="-104" rx="76.4381" ry="18"/>
<text text-anchor="middle" x="750" y="-99.8" font-family="Times,serif" font-size="14.00" fill="#000000">RegistrosService</text>
</g>
<!-- ServiceModule -->
<g id="node6" class="node">
<title>ServiceModule</title>
<polygon fill="#8dd3c7" stroke="#000000" points="460.5285,-187 457.5285,-191 436.5285,-191 433.5285,-187 359.4715,-187 359.4715,-151 460.5285,-151 460.5285,-187"/>
<text text-anchor="middle" x="410" y="-164.8" font-family="Times,serif" font-size="14.00" fill="#000000">ServiceModule</text>
</g>
<!-- RegistrosService&#45;&gt;ServiceModule -->
<g id="edge1" class="edge">
<title>RegistrosService&#45;&gt;ServiceModule</title>
<path fill="none" stroke="#000000" d="M750,-122.2843C750,-143.3211 750,-175 750,-175 750,-175 470.5343,-175 470.5343,-175"/>
<polygon fill="#000000" stroke="#000000" points="470.5343,-171.5001 460.5343,-175 470.5343,-178.5001 470.5343,-171.5001"/>
</g>
<!-- SanitarioService -->
<g id="node2" class="node">
<title>SanitarioService</title>
<ellipse fill="#fdb462" stroke="#000000" cx="581" cy="-104" rx="74.713" ry="18"/>
<text text-anchor="middle" x="581" y="-99.8" font-family="Times,serif" font-size="14.00" fill="#000000">SanitarioService</text>
</g>
<!-- SanitarioService&#45;&gt;ServiceModule -->
<g id="edge2" class="edge">
<title>SanitarioService&#45;&gt;ServiceModule</title>
<path fill="none" stroke="#000000" d="M581,-122.0225C581,-139.3734 581,-163 581,-163 581,-163 470.8427,-163 470.8427,-163"/>
<polygon fill="#000000" stroke="#000000" points="470.8427,-159.5001 460.8427,-163 470.8426,-166.5001 470.8427,-159.5001"/>
</g>
<!-- SanitariosService -->
<g id="node3" class="node">
<title>SanitariosService</title>
<ellipse fill="#fdb462" stroke="#000000" cx="410" cy="-104" rx="78.724" ry="18"/>
<text text-anchor="middle" x="410" y="-99.8" font-family="Times,serif" font-size="14.00" fill="#000000">SanitariosService</text>
</g>
<!-- SanitariosService&#45;&gt;ServiceModule -->
<g id="edge3" class="edge">
<title>SanitariosService&#45;&gt;ServiceModule</title>
<path fill="none" stroke="#000000" d="M410,-122.1061C410,-122.1061 410,-140.991 410,-140.991"/>
<polygon fill="#000000" stroke="#000000" points="406.5001,-140.9909 410,-150.991 413.5001,-140.991 406.5001,-140.9909"/>
</g>
<!-- SharedService -->
<g id="node4" class="node">
<title>SharedService</title>
<ellipse fill="#fdb462" stroke="#000000" cx="247" cy="-104" rx="66.6113" ry="18"/>
<text text-anchor="middle" x="247" y="-99.8" font-family="Times,serif" font-size="14.00" fill="#000000">SharedService</text>
</g>
<!-- SharedService&#45;&gt;ServiceModule -->
<g id="edge4" class="edge">
<title>SharedService&#45;&gt;ServiceModule</title>
<path fill="none" stroke="#000000" d="M247,-122.0225C247,-139.3734 247,-163 247,-163 247,-163 349.3193,-163 349.3193,-163"/>
<polygon fill="#000000" stroke="#000000" points="349.3193,-166.5001 359.3193,-163 349.3192,-159.5001 349.3193,-166.5001"/>
</g>
<!-- SidebarService -->
<g id="node5" class="node">
<title>SidebarService</title>
<ellipse fill="#fdb462" stroke="#000000" cx="93" cy="-104" rx="69.4781" ry="18"/>
<text text-anchor="middle" x="93" y="-99.8" font-family="Times,serif" font-size="14.00" fill="#000000">SidebarService</text>
</g>
<!-- SidebarService&#45;&gt;ServiceModule -->
<g id="edge5" class="edge">
<title>SidebarService&#45;&gt;ServiceModule</title>
<path fill="none" stroke="#000000" d="M93,-122.2843C93,-143.3211 93,-175 93,-175 93,-175 349.4199,-175 349.4199,-175"/>
<polygon fill="#000000" stroke="#000000" points="349.4199,-178.5001 359.4199,-175 349.4198,-171.5001 349.4199,-178.5001"/>
</g>
</g>
</svg>
