<?xml version="1.0" encoding="UTF-8" standalone="no"?>
<!DOCTYPE svg PUBLIC "-//W3C//DTD SVG 1.1//EN"
 "http://www.w3.org/Graphics/SVG/1.1/DTD/svg11.dtd">
<!-- Generated by graphviz version 2.40.1 (20161225.0304)
 -->
<!-- Title: dependencies Pages: 1 -->
<svg width="866pt" height="284pt"
 viewBox="0.00 0.00 866.00 284.00" xmlns="http://www.w3.org/2000/svg" xmlns:xlink="http://www.w3.org/1999/xlink">
<g id="graph0" class="graph" transform="scale(1 1) rotate(0) translate(4 280)">
<title>dependencies</title>
<polygon fill="#ffffff" stroke="transparent" points="-4,4 -4,-280 862,-280 862,4 -4,4"/>
<text text-anchor="start" x="408.0091" y="-42.4" font-family="sans-serif" font-weight="bold" font-size="14.00" fill="#000000">Legend</text>
<polygon fill="#ffffb3" stroke="transparent" points="195,-10 195,-30 215,-30 215,-10 195,-10"/>
<text text-anchor="start" x="218.629" y="-15.4" font-family="sans-serif" font-size="14.00" fill="#000000"> &#160;Declarations</text>
<polygon fill="#8dd3c7" stroke="transparent" points="308,-10 308,-30 328,-30 328,-10 308,-10"/>
<text text-anchor="start" x="331.7251" y="-15.4" font-family="sans-serif" font-size="14.00" fill="#000000"> &#160;Module</text>
<polygon fill="#80b1d3" stroke="transparent" points="394,-10 394,-30 414,-30 414,-10 394,-10"/>
<text text-anchor="start" x="417.7812" y="-15.4" font-family="sans-serif" font-size="14.00" fill="#000000"> &#160;Bootstrap</text>
<polygon fill="#fdb462" stroke="transparent" points="491,-10 491,-30 511,-30 511,-10 491,-10"/>
<text text-anchor="start" x="514.6732" y="-15.4" font-family="sans-serif" font-size="14.00" fill="#000000"> &#160;Providers</text>
<polygon fill="#fb8072" stroke="transparent" points="587,-10 587,-30 607,-30 607,-10 587,-10"/>
<text text-anchor="start" x="610.7258" y="-15.4" font-family="sans-serif" font-size="14.00" fill="#000000"> &#160;Exports</text>
<g id="clust1" class="cluster">
<title>cluster_AppModule</title>
<polygon fill="none" stroke="#000000" stroke-dasharray="1,5" points="8,-70 8,-268 850,-268 850,-70 8,-70"/>
</g>
<g id="clust2" class="cluster">
<title>cluster_AppModule_declarations</title>
<polygon fill="none" stroke="#000000" points="720,-78 720,-130 842,-130 842,-78 720,-78"/>
</g>
<g id="clust4" class="cluster">
<title>cluster_AppModule_imports</title>
<polygon fill="none" stroke="#000000" points="368,-78 368,-130 712,-130 712,-78 368,-78"/>
</g>
<g id="clust6" class="cluster">
<title>cluster_AppModule_bootstrap</title>
<polygon fill="none" stroke="#000000" points="422,-208 422,-260 546,-260 546,-208 422,-208"/>
</g>
<g id="clust7" class="cluster">
<title>cluster_AppModule_providers</title>
<polygon fill="none" stroke="#000000" points="16,-78 16,-130 360,-130 360,-78 16,-78"/>
</g>
<!-- AppComponent -->
<g id="node1" class="node">
<title>AppComponent</title>
<polygon fill="#ffffb3" stroke="#000000" points="833.9399,-122 728.0601,-122 728.0601,-86 833.9399,-86 833.9399,-122"/>
<text text-anchor="middle" x="781" y="-99.8" font-family="Times,serif" font-size="14.00" fill="#000000">AppComponent</text>
</g>
<!-- AppModule -->
<g id="node2" class="node">
<title>AppModule</title>
<polygon fill="#8dd3c7" stroke="#000000" points="525.6571,-187 522.6571,-191 501.6571,-191 498.6571,-187 442.3429,-187 442.3429,-151 525.6571,-151 525.6571,-187"/>
<text text-anchor="middle" x="484" y="-164.8" font-family="Times,serif" font-size="14.00" fill="#000000">AppModule</text>
</g>
<!-- AppComponent&#45;&gt;AppModule -->
<g id="edge1" class="edge">
<title>AppComponent&#45;&gt;AppModule</title>
<path fill="none" stroke="#000000" d="M781,-122.2843C781,-143.3211 781,-175 781,-175 781,-175 535.9229,-175 535.9229,-175"/>
<polygon fill="#000000" stroke="#000000" points="535.923,-171.5001 525.9229,-175 535.9229,-178.5001 535.923,-171.5001"/>
</g>
<!-- AppComponent  -->
<g id="node6" class="node">
<title>AppComponent </title>
<polygon fill="#80b1d3" stroke="#000000" points="538.439,-252 429.561,-252 429.561,-216 538.439,-216 538.439,-252"/>
<text text-anchor="middle" x="484" y="-229.8" font-family="Times,serif" font-size="14.00" fill="#000000">AppComponent </text>
</g>
<!-- AppModule&#45;&gt;AppComponent  -->
<g id="edge5" class="edge">
<title>AppModule&#45;&gt;AppComponent </title>
<path fill="none" stroke="#000000" stroke-dasharray="1,5" d="M484,-187.1061C484,-187.1061 484,-205.991 484,-205.991"/>
<polygon fill="#000000" stroke="#000000" points="480.5001,-205.9909 484,-215.991 487.5001,-205.991 480.5001,-205.9909"/>
</g>
<!-- PagesModule -->
<g id="node3" class="node">
<title>PagesModule</title>
<polygon fill="#8dd3c7" stroke="#000000" points="704.2064,-122 701.2064,-126 680.2064,-126 677.2064,-122 611.7936,-122 611.7936,-86 704.2064,-86 704.2064,-122"/>
<text text-anchor="middle" x="658" y="-99.8" font-family="Times,serif" font-size="14.00" fill="#000000">PagesModule</text>
</g>
<!-- PagesModule&#45;&gt;AppModule -->
<g id="edge2" class="edge">
<title>PagesModule&#45;&gt;AppModule</title>
<path fill="none" stroke="#000000" d="M658,-122.0225C658,-139.3734 658,-163 658,-163 658,-163 535.6773,-163 535.6773,-163"/>
<polygon fill="#000000" stroke="#000000" points="535.6774,-159.5001 525.6773,-163 535.6773,-166.5001 535.6774,-159.5001"/>
</g>
<!-- ServiceModule -->
<g id="node4" class="node">
<title>ServiceModule</title>
<polygon fill="#8dd3c7" stroke="#000000" points="593.5285,-122 590.5285,-126 569.5285,-126 566.5285,-122 492.4715,-122 492.4715,-86 593.5285,-86 593.5285,-122"/>
<text text-anchor="middle" x="543" y="-99.8" font-family="Times,serif" font-size="14.00" fill="#000000">ServiceModule</text>
</g>
<!-- ServiceModule&#45;&gt;AppModule -->
<g id="edge3" class="edge">
<title>ServiceModule&#45;&gt;AppModule</title>
<path fill="none" stroke="#000000" d="M509.0323,-122.1061C509.0323,-122.1061 509.0323,-140.991 509.0323,-140.991"/>
<polygon fill="#000000" stroke="#000000" points="505.5323,-140.9909 509.0323,-150.991 512.5323,-140.991 505.5323,-140.9909"/>
</g>
<!-- SharedModule -->
<g id="node5" class="node">
<title>SharedModule</title>
<polygon fill="#8dd3c7" stroke="#000000" points="474.4231,-122 471.4231,-126 450.4231,-126 447.4231,-122 375.5769,-122 375.5769,-86 474.4231,-86 474.4231,-122"/>
<text text-anchor="middle" x="425" y="-99.8" font-family="Times,serif" font-size="14.00" fill="#000000">SharedModule</text>
</g>
<!-- SharedModule&#45;&gt;AppModule -->
<g id="edge4" class="edge">
<title>SharedModule&#45;&gt;AppModule</title>
<path fill="none" stroke="#000000" d="M458.1915,-122.1061C458.1915,-122.1061 458.1915,-140.991 458.1915,-140.991"/>
<polygon fill="#000000" stroke="#000000" points="454.6915,-140.9909 458.1915,-150.991 461.6915,-140.991 454.6915,-140.9909"/>
</g>
<!-- RegistrosService -->
<g id="node7" class="node">
<title>RegistrosService</title>
<ellipse fill="#fdb462" stroke="#000000" cx="276" cy="-104" rx="76.4381" ry="18"/>
<text text-anchor="middle" x="276" y="-99.8" font-family="Times,serif" font-size="14.00" fill="#000000">RegistrosService</text>
</g>
<!-- RegistrosService&#45;&gt;AppModule -->
<g id="edge6" class="edge">
<title>RegistrosService&#45;&gt;AppModule</title>
<path fill="none" stroke="#000000" d="M276,-122.0225C276,-139.3734 276,-163 276,-163 276,-163 431.9081,-163 431.9081,-163"/>
<polygon fill="#000000" stroke="#000000" points="431.9081,-166.5001 441.9081,-163 431.9081,-159.5001 431.9081,-166.5001"/>
</g>
<!-- SanitariosService -->
<g id="node8" class="node">
<title>SanitariosService</title>
<ellipse fill="#fdb462" stroke="#000000" cx="103" cy="-104" rx="78.724" ry="18"/>
<text text-anchor="middle" x="103" y="-99.8" font-family="Times,serif" font-size="14.00" fill="#000000">SanitariosService</text>
</g>
<!-- SanitariosService&#45;&gt;AppModule -->
<g id="edge7" class="edge">
<title>SanitariosService&#45;&gt;AppModule</title>
<path fill="none" stroke="#000000" d="M103,-122.2843C103,-143.3211 103,-175 103,-175 103,-175 432.1365,-175 432.1365,-175"/>
<polygon fill="#000000" stroke="#000000" points="432.1365,-178.5001 442.1365,-175 432.1364,-171.5001 432.1365,-178.5001"/>
</g>
</g>
</svg>
