<?xml version="1.0" encoding="UTF-8" standalone="no"?>
<!DOCTYPE svg PUBLIC "-//W3C//DTD SVG 1.1//EN"
 "http://www.w3.org/Graphics/SVG/1.1/DTD/svg11.dtd">
<!-- Generated by graphviz version 2.40.1 (20161225.0304)
 -->
<!-- Title: dependencies Pages: 1 -->
<svg width="727pt" height="284pt"
 viewBox="0.00 0.00 727.00 284.00" xmlns="http://www.w3.org/2000/svg" xmlns:xlink="http://www.w3.org/1999/xlink">
<g id="graph0" class="graph" transform="scale(1 1) rotate(0) translate(4 280)">
<title>dependencies</title>
<polygon fill="#ffffff" stroke="transparent" points="-4,4 -4,-280 723,-280 723,4 -4,4"/>
<text text-anchor="start" x="338.5091" y="-42.4" font-family="sans-serif" font-weight="bold" font-size="14.00" fill="#000000">Legend</text>
<polygon fill="#ffffb3" stroke="transparent" points="125.5,-10 125.5,-30 145.5,-30 145.5,-10 125.5,-10"/>
<text text-anchor="start" x="149.129" y="-15.4" font-family="sans-serif" font-size="14.00" fill="#000000"> &#160;Declarations</text>
<polygon fill="#8dd3c7" stroke="transparent" points="238.5,-10 238.5,-30 258.5,-30 258.5,-10 238.5,-10"/>
<text text-anchor="start" x="262.2251" y="-15.4" font-family="sans-serif" font-size="14.00" fill="#000000"> &#160;Module</text>
<polygon fill="#80b1d3" stroke="transparent" points="324.5,-10 324.5,-30 344.5,-30 344.5,-10 324.5,-10"/>
<text text-anchor="start" x="348.2812" y="-15.4" font-family="sans-serif" font-size="14.00" fill="#000000"> &#160;Bootstrap</text>
<polygon fill="#fdb462" stroke="transparent" points="421.5,-10 421.5,-30 441.5,-30 441.5,-10 421.5,-10"/>
<text text-anchor="start" x="445.1732" y="-15.4" font-family="sans-serif" font-size="14.00" fill="#000000"> &#160;Providers</text>
<polygon fill="#fb8072" stroke="transparent" points="517.5,-10 517.5,-30 537.5,-30 537.5,-10 517.5,-10"/>
<text text-anchor="start" x="541.2258" y="-15.4" font-family="sans-serif" font-size="14.00" fill="#000000"> &#160;Exports</text>
<g id="clust1" class="cluster">
<title>cluster_PagesModule</title>
<polygon fill="none" stroke="#000000" stroke-dasharray="1,5" points="8,-70 8,-268 711,-268 711,-70 8,-70"/>
</g>
<g id="clust2" class="cluster">
<title>cluster_PagesModule_declarations</title>
<polygon fill="none" stroke="#000000" points="24,-78 24,-130 697,-130 697,-78 24,-78"/>
</g>
<g id="clust8" class="cluster">
<title>cluster_PagesModule_exports</title>
<polygon fill="none" stroke="#000000" points="16,-208 16,-260 703,-260 703,-208 16,-208"/>
</g>
<!-- OtrosAreasComponent -->
<g id="node1" class="node">
<title>OtrosAreasComponent</title>
<polygon fill="#ffffb3" stroke="#000000" points="688.5758,-122 543.4242,-122 543.4242,-86 688.5758,-86 688.5758,-122"/>
<text text-anchor="middle" x="616" y="-99.8" font-family="Times,serif" font-size="14.00" fill="#000000">OtrosAreasComponent</text>
</g>
<!-- PagesModule -->
<g id="node5" class="node">
<title>PagesModule</title>
<polygon fill="#8dd3c7" stroke="#000000" points="341.2064,-187 338.2064,-191 317.2064,-191 314.2064,-187 248.7936,-187 248.7936,-151 341.2064,-151 341.2064,-187"/>
<text text-anchor="middle" x="295" y="-164.8" font-family="Times,serif" font-size="14.00" fill="#000000">PagesModule</text>
</g>
<!-- OtrosAreasComponent&#45;&gt;PagesModule -->
<g id="edge1" class="edge">
<title>OtrosAreasComponent&#45;&gt;PagesModule</title>
<path fill="none" stroke="#000000" d="M641.2626,-122.2667C641.2626,-140.5552 641.2626,-166 641.2626,-166 641.2626,-166 351.3392,-166 351.3392,-166"/>
<polygon fill="#000000" stroke="#000000" points="351.3393,-162.5001 341.3392,-166 351.3392,-169.5001 351.3393,-162.5001"/>
</g>
<!-- Zpn1AreasComponent -->
<g id="node2" class="node">
<title>Zpn1AreasComponent</title>
<polygon fill="#ffffb3" stroke="#000000" points="525.5268,-122 382.4732,-122 382.4732,-86 525.5268,-86 525.5268,-122"/>
<text text-anchor="middle" x="454" y="-99.8" font-family="Times,serif" font-size="14.00" fill="#000000">Zpn1AreasComponent</text>
</g>
<!-- Zpn1AreasComponent&#45;&gt;PagesModule -->
<g id="edge2" class="edge">
<title>Zpn1AreasComponent&#45;&gt;PagesModule</title>
<path fill="none" stroke="#000000" d="M477.921,-122.0091C477.921,-138.0494 477.921,-159 477.921,-159 477.921,-159 351.1587,-159 351.1587,-159"/>
<polygon fill="#000000" stroke="#000000" points="351.1587,-155.5001 341.1587,-159 351.1587,-162.5001 351.1587,-155.5001"/>
</g>
<!-- Zpn2AreasComponent -->
<g id="node3" class="node">
<title>Zpn2AreasComponent</title>
<polygon fill="#ffffb3" stroke="#000000" points="363.5268,-122 220.4732,-122 220.4732,-86 363.5268,-86 363.5268,-122"/>
<text text-anchor="middle" x="292" y="-99.8" font-family="Times,serif" font-size="14.00" fill="#000000">Zpn2AreasComponent</text>
</g>
<!-- Zpn2AreasComponent&#45;&gt;PagesModule -->
<g id="edge3" class="edge">
<title>Zpn2AreasComponent&#45;&gt;PagesModule</title>
<path fill="none" stroke="#000000" d="M295,-122.1061C295,-122.1061 295,-140.991 295,-140.991"/>
<polygon fill="#000000" stroke="#000000" points="291.5001,-140.9909 295,-150.991 298.5001,-140.991 291.5001,-140.9909"/>
</g>
<!-- Zpn3LabsAreasComponent -->
<g id="node4" class="node">
<title>Zpn3LabsAreasComponent</title>
<polygon fill="#ffffb3" stroke="#000000" points="202.238,-122 31.762,-122 31.762,-86 202.238,-86 202.238,-122"/>
<text text-anchor="middle" x="117" y="-99.8" font-family="Times,serif" font-size="14.00" fill="#000000">Zpn3LabsAreasComponent</text>
</g>
<!-- Zpn3LabsAreasComponent&#45;&gt;PagesModule -->
<g id="edge4" class="edge">
<title>Zpn3LabsAreasComponent&#45;&gt;PagesModule</title>
<path fill="none" stroke="#000000" d="M142.623,-122.0225C142.623,-139.3734 142.623,-163 142.623,-163 142.623,-163 238.8684,-163 238.8684,-163"/>
<polygon fill="#000000" stroke="#000000" points="238.8684,-166.5001 248.8684,-163 238.8683,-159.5001 238.8684,-166.5001"/>
</g>
<!-- OtrosAreasComponent  -->
<g id="node6" class="node">
<title>OtrosAreasComponent </title>
<polygon fill="#fb8072" stroke="#000000" points="695.0764,-252 546.9236,-252 546.9236,-216 695.0764,-216 695.0764,-252"/>
<text text-anchor="middle" x="621" y="-229.8" font-family="Times,serif" font-size="14.00" fill="#000000">OtrosAreasComponent </text>
</g>
<!-- PagesModule&#45;&gt;OtrosAreasComponent  -->
<g id="edge5" class="edge">
<title>PagesModule&#45;&gt;OtrosAreasComponent </title>
<path fill="none" stroke="#000000" stroke-dasharray="5,2" d="M341.3887,-173C425.3687,-173 593.9874,-173 593.9874,-173 593.9874,-173 593.9874,-205.698 593.9874,-205.698"/>
<polygon fill="#000000" stroke="#000000" points="590.4875,-205.698 593.9874,-215.698 597.4875,-205.698 590.4875,-205.698"/>
</g>
<!-- Zpn1AreasComponent  -->
<g id="node7" class="node">
<title>Zpn1AreasComponent </title>
<polygon fill="#fb8072" stroke="#000000" points="528.526,-252 381.474,-252 381.474,-216 528.526,-216 528.526,-252"/>
<text text-anchor="middle" x="455" y="-229.8" font-family="Times,serif" font-size="14.00" fill="#000000">Zpn1AreasComponent </text>
</g>
<!-- PagesModule&#45;&gt;Zpn1AreasComponent  -->
<g id="edge6" class="edge">
<title>PagesModule&#45;&gt;Zpn1AreasComponent </title>
<path fill="none" stroke="#000000" stroke-dasharray="5,2" d="M341.1087,-180C380.2401,-180 430.079,-180 430.079,-180 430.079,-180 430.079,-205.7181 430.079,-205.7181"/>
<polygon fill="#000000" stroke="#000000" points="426.5791,-205.718 430.079,-215.7181 433.5791,-205.7181 426.5791,-205.718"/>
</g>
<!-- Zpn2AreasComponent  -->
<g id="node8" class="node">
<title>Zpn2AreasComponent </title>
<polygon fill="#fb8072" stroke="#000000" points="363.526,-252 216.474,-252 216.474,-216 363.526,-216 363.526,-252"/>
<text text-anchor="middle" x="290" y="-229.8" font-family="Times,serif" font-size="14.00" fill="#000000">Zpn2AreasComponent </text>
</g>
<!-- PagesModule&#45;&gt;Zpn2AreasComponent  -->
<g id="edge7" class="edge">
<title>PagesModule&#45;&gt;Zpn2AreasComponent </title>
<path fill="none" stroke="#000000" stroke-dasharray="5,2" d="M295,-187.1061C295,-187.1061 295,-205.991 295,-205.991"/>
<polygon fill="#000000" stroke="#000000" points="291.5001,-205.9909 295,-215.991 298.5001,-205.991 291.5001,-205.9909"/>
</g>
<!-- Zpn3LabsAreasComponent  -->
<g id="node9" class="node">
<title>Zpn3LabsAreasComponent </title>
<polygon fill="#fb8072" stroke="#000000" points="198.238,-252 23.762,-252 23.762,-216 198.238,-216 198.238,-252"/>
<text text-anchor="middle" x="111" y="-229.8" font-family="Times,serif" font-size="14.00" fill="#000000">Zpn3LabsAreasComponent </text>
</g>
<!-- PagesModule&#45;&gt;Zpn3LabsAreasComponent  -->
<g id="edge8" class="edge">
<title>PagesModule&#45;&gt;Zpn3LabsAreasComponent </title>
<path fill="none" stroke="#000000" stroke-dasharray="5,2" d="M248.8663,-175C187.6252,-175 87.127,-175 87.127,-175 87.127,-175 87.127,-205.9775 87.127,-205.9775"/>
<polygon fill="#000000" stroke="#000000" points="83.6271,-205.9774 87.127,-215.9775 90.6271,-205.9775 83.6271,-205.9774"/>
</g>
</g>
</svg>
